<svg width="139" height="20" viewBox="0 0 139 20" fill="none" xmlns="http://www.w3.org/2000/svg">
<g clip-path="url(#clip0_522_128)">
<path d="M20.368 16V4.8H22.648L27.008 11.984L26.072 12L30.232 4.8H32.496V16H30.2L30.24 7.856L30.664 8.008L27.24 13.792H25.624L22.096 8.008L22.496 7.856L22.536 16H20.368ZM35.2274 16V4.8H37.5954V16H35.2274ZM40.3211 16V4.8H44.7611C45.5718 4.8 46.2785 4.936 46.8811 5.208C47.4891 5.47467 47.9558 5.86133 48.2811 6.368C48.6118 6.87467 48.7771 7.48 48.7771 8.184C48.7771 8.73867 48.6678 9.22667 48.4491 9.648C48.2305 10.064 47.9291 10.4107 47.5451 10.688C47.1665 10.9653 46.7291 11.1653 46.2331 11.288L49.3691 16H46.5451L43.8491 11.744H42.6891V16H40.3211ZM42.6891 9.832H44.4491C45.0571 9.832 45.5318 9.70933 45.8731 9.464C46.2198 9.21333 46.3931 8.83467 46.3931 8.328C46.3931 7.80533 46.2331 7.41333 45.9131 7.152C45.5985 6.89067 45.1371 6.76 44.5291 6.76H42.6891V9.832ZM49.9241 16L54.1641 4.8H56.8601L61.1641 16H58.5001L57.6281 13.6H53.3641L52.5161 16H49.9241ZM53.9241 11.6H57.0521L55.4681 7.392L53.9241 11.6ZM61.5536 16L65.0736 10.28L61.7136 4.8H64.5616L66.7776 8.496L69.0896 4.8H71.8576L68.3856 10.328L71.9456 16H69.0736L66.6736 12.072L64.3456 16H61.5536ZM77.368 16V4.8H81.096C82.2373 4.8 83.2427 5.03733 84.112 5.512C84.9867 5.98667 85.6667 6.64533 86.152 7.488C86.6427 8.33067 86.888 9.304 86.888 10.408C86.888 11.2293 86.7467 11.984 86.464 12.672C86.1867 13.36 85.792 13.952 85.28 14.448C84.768 14.9387 84.1573 15.32 83.448 15.592C82.7387 15.864 81.9547 16 81.096 16H77.368ZM79.736 13.792H80.928C81.4507 13.792 81.9227 13.72 82.344 13.576C82.7707 13.4267 83.1387 13.2053 83.448 12.912C83.7573 12.6187 83.9947 12.264 84.16 11.848C84.3253 11.4267 84.408 10.9467 84.408 10.408C84.408 9.68267 84.2613 9.06667 83.968 8.56C83.68 8.05333 83.2747 7.66667 82.752 7.4C82.2293 7.13333 81.6213 7 80.928 7H79.736V13.792ZM88.9305 16V4.8H91.2985V16H88.9305ZM99.6163 16.24C98.7469 16.24 97.9309 16.1067 97.1683 15.84C96.4056 15.568 95.7363 15.1813 95.1603 14.68C94.5896 14.1733 94.1416 13.56 93.8163 12.84C93.4909 12.12 93.3283 11.3093 93.3283 10.408C93.3283 9.51733 93.4829 8.712 93.7923 7.992C94.1069 7.272 94.5443 6.656 95.1043 6.144C95.6643 5.632 96.3149 5.24 97.0563 4.968C97.8029 4.696 98.6083 4.56 99.4723 4.56C99.8669 4.56 100.278 4.592 100.704 4.656C101.131 4.71467 101.56 4.82133 101.992 4.976C102.43 5.12533 102.851 5.336 103.256 5.608L102.264 7.448C101.87 7.19733 101.448 7.01067 101 6.888C100.558 6.76533 100.091 6.704 99.6003 6.704C99.0083 6.704 98.4749 6.78933 98.0003 6.96C97.5256 7.13067 97.1229 7.37867 96.7923 7.704C96.4616 8.024 96.2083 8.41333 96.0323 8.872C95.8563 9.33067 95.7683 9.84533 95.7683 10.416C95.7683 11.2373 95.9416 11.928 96.2883 12.488C96.6349 13.0427 97.1096 13.464 97.7123 13.752C98.3149 14.0347 98.9949 14.176 99.7523 14.176C100.083 14.176 100.39 14.1467 100.672 14.088C100.955 14.0293 101.195 13.96 101.392 13.88V11.656H99.0243V9.752H103.48V15.304C103.16 15.496 102.774 15.664 102.32 15.808C101.867 15.9467 101.4 16.0533 100.92 16.128C100.446 16.2027 100.011 16.24 99.6163 16.24ZM106.056 16V4.8H108.424V16H106.056ZM113.165 16V6.96H110.125V4.8H118.589V6.96H115.549V16H113.165ZM118.315 16L122.555 4.8H125.251L129.555 16H126.891L126.019 13.6H121.755L120.907 16H118.315ZM122.315 11.6H125.443L123.859 7.392L122.315 11.6ZM131.024 16V4.8H133.392V13.832H138.016V16H131.024Z" fill="white"/>
<circle cx="8" cy="10" r="7" stroke="#6B21FF" stroke-width="2"/>
</g>
<defs>
<clipPath id="clip0_522_128">
<rect width="139" height="20" fill="white"/>
</clipPath>
</defs>
</svg>
